<?xml version="1.0" encoding="UTF-8"?>
<svg version="1.1" xmlns="http://www.w3.org/2000/svg" width="400" height="400">
<path d="M0 0 C132 0 264 0 400 0 C400 132 400 264 400 400 C268 400 136 400 0 400 C0 268 0 136 0 0 Z " fill="#04105B" transform="translate(0,0)"/>
<path d="M0 0 C3.60759409 -0.0088497 7.21480181 -0.02974141 10.82226562 -0.06152344 C36.39170097 -0.28170918 61.7624177 -0.19087548 86.23706055 8.29516602 C86.94846191 8.53074219 87.65986328 8.76631836 88.39282227 9.0090332 C121.38231434 19.98029345 146.83826646 40.66700249 162.5612793 71.85766602 C166.1619562 79.24366992 168.6986922 86.56632869 170.86206055 94.48266602 C171.06855225 95.22419922 171.27504395 95.96573242 171.48779297 96.72973633 C174.84818113 109.57048815 175.64754486 122.53212613 175.61206055 135.73266602 C175.61184906 136.46684753 175.61163757 137.20102905 175.61141968 137.9574585 C175.51166598 172.92420388 165.81160745 208.31086393 141.24487305 234.14672852 C139.17637412 236.29497661 139.17637412 236.29497661 137.2878418 238.80297852 C123.91044972 255.05969498 101.76027358 265.51050333 82.23706055 272.29516602 C80.47749023 272.92551758 80.47749023 272.92551758 78.68237305 273.56860352 C59.43895915 280.20206198 39.84891166 281.90722058 19.6237793 281.75610352 C17.46425996 281.75371043 15.3047385 281.75281559 13.1452179 281.75332642 C8.67724087 281.75023652 4.20959348 281.73394646 -0.25830078 281.70678711 C-5.99145967 281.672376 -11.7242665 281.66517282 -17.45751667 281.66667747 C-21.89002352 281.66613559 -26.32245307 281.65520474 -30.75493431 281.64067459 C-32.87171026 281.63431115 -34.98849492 281.63036876 -37.10527992 281.62888718 C-40.03860336 281.62457388 -42.97154353 281.60712863 -45.90478516 281.58569336 C-46.77783295 281.58659973 -47.65088074 281.5875061 -48.55038452 281.58843994 C-54.53393914 281.52416633 -54.53393914 281.52416633 -56.76293945 279.29516602 C-57.01248711 277.27178758 -57.01248711 277.27178758 -57.01182842 274.72585201 C-57.01642722 273.75758604 -57.02102601 272.78932007 -57.02576417 271.7917127 C-57.0206206 270.72042783 -57.01547704 269.64914295 -57.01017761 268.5453949 C-57.01259203 267.41324761 -57.01500644 266.28110032 -57.01749402 265.11464554 C-57.02316046 261.29512289 -57.01444569 257.47576531 -57.00585938 253.65625 C-57.00582526 250.92854591 -57.00878871 248.20084696 -57.01161194 245.47314453 C-57.01666145 238.81817877 -57.01100303 232.16326258 -57.00176164 225.50830298 C-56.99139507 217.765803 -56.99144736 210.02331383 -56.99193422 202.28080822 C-56.99243521 188.47121191 -56.98326308 174.66163874 -56.96875 160.85205078 C-56.95465911 147.43733295 -56.94757931 134.02263549 -56.94824219 120.60791016 C-56.94828214 119.78160323 -56.9483221 118.95529631 -56.94836327 118.10394978 C-56.94840362 117.27910216 -56.94844398 116.45425454 -56.94848555 115.60441154 C-56.94917461 100.35247683 -56.94329022 85.10055081 -56.93433234 69.84861891 C-56.93131033 64.44542438 -56.93025211 59.04223145 -56.92980003 53.63903618 C-56.92911935 47.05955344 -56.92467498 40.48008535 -56.91546723 33.90060883 C-56.91083617 30.54054419 -56.90833759 27.18051441 -56.90906143 23.82044411 C-56.90954827 20.18625723 -56.90393466 16.55213184 -56.89665222 12.91795349 C-56.89820082 11.84443789 -56.89974943 10.7709223 -56.90134495 9.66487592 C-56.89812051 8.6992177 -56.89489606 7.73355947 -56.89157391 6.73863888 C-56.89086948 5.89864249 -56.89016506 5.05864611 -56.88943928 4.19319528 C-56.76293945 2.29516602 -56.76293945 2.29516602 -55.76293945 1.29516602 C-53.07187622 1.04447571 -50.41070289 0.8743676 -47.7121582 0.75219727 C-46.80431076 0.71077103 -45.89646332 0.66934479 -44.96110535 0.62666321 C-29.98348701 0.02709663 -14.98735141 0.03280429 0 0 Z " fill="#FCFCFD" transform="translate(146.762939453125,60.704833984375)"/>
<path d="M0 0 C132 0 264 0 400 0 C400 132 400 264 400 400 C268 400 136 400 0 400 C0 268 0 136 0 0 Z M32 29 C32 143.18 32 257.36 32 375 C141.23 375 250.46 375 363 375 C363 260.82 363 146.64 363 29 C253.77 29 144.54 29 32 29 Z " fill="#FFFFFF" transform="translate(0,0)"/>
<path d="M0 0 C55.40673663 0 55.40673663 0 72.25 5.8125 C73.38501953 6.20042725 73.38501953 6.20042725 74.54296875 6.59619141 C85.05895121 10.30599633 93.62024714 15.65720652 102 23 C102.68835938 23.59296875 103.37671875 24.1859375 104.0859375 24.796875 C119.47272073 39.02812906 127.24737648 60.34835297 128.12597656 80.95458984 C128.85268099 111.88552195 125.3971768 140.15256233 103.30078125 163.66015625 C102.16189453 164.81837891 102.16189453 164.81837891 101 166 C100.31292969 166.69996094 99.62585938 167.39992188 98.91796875 168.12109375 C89.77335718 176.82459233 79.18947188 181.88376686 67.375 185.875 C66.1060791 186.30437866 66.1060791 186.30437866 64.81152344 186.74243164 C43.28655486 193.63100133 23.29185557 191 0 191 C0 127.97 0 64.94 0 0 Z " fill="#04105B" transform="translate(141,106)"/>
</svg>
